<svg xmlns="http://www.w3.org/2000/svg" viewBox="0 0 60 60" width="150" height="150">
    <path d="M17.6738 40.9171L17.7196 40.5821C17.7245 40.5477 18.2073 37.0724 19.3527 32.3643C20.3885 28.1068 22.1955 21.9459 24.9566 16.5512C22.5082 12.4154 18.883 8.51864 14.064 7.39559V25.8605C14.064 36.2234 9.8182 40.676 6.25661 42.5869C3.82978 43.8922 1.77125 43.9775 1.68495 43.9806L-0.000366211 44.039L1.16866 42.8274C1.20803 42.7858 5.24939 38.4359 5.24939 28.9425V0.0505918C5.24939 0.0505918 5.75811 0.00195312 6.49885 0.00195312C8.85546 0.00195312 20.7856 0.518052 28.7929 10.5164C36.7998 0.518052 48.7301 0.00195312 51.0867 0.00195312C51.8043 0.00195312 52.3358 0.0505918 52.3358 0.0505918V28.9427C52.3358 38.4361 56.3771 42.786 56.4182 42.8289L57.57 44.0373L55.9004 43.9807C55.7719 43.9762 52.7175 43.8447 49.6497 41.5093C44.5844 37.6528 43.5214 30.871 43.5214 25.8607V7.39768C41.5868 7.80079 36.5123 9.56332 32.2605 17.1928C31.1374 19.1892 30.2954 21.2841 29.4287 23.4575C26.1396 31.7745 25.131 37.0249 24.8542 38.8504L28.7929 42.7771L32.7315 38.8502C32.346 36.269 31.4081 32.6601 30.1355 28.871L30.0706 28.6772L30.1232 28.4798C31.0105 25.1453 32.8114 22.4651 33.7355 21.4067L34.4765 20.5587L34.8879 21.6062C38.5052 30.8241 39.8525 40.4863 39.8657 40.5827L39.9113 40.9175L28.7931 52.0021L17.674 40.9173L17.6738 40.9171Z" 
          fill="white"/>
</svg>